<svg id="Layer_1" data-name="Layer 1" xmlns="http://www.w3.org/2000/svg" viewBox="0 0 351.62 102.2">
  <defs>
    <style>
      .cls-1 {
        fill: #ed9837;
      }

      .cls-2 {
        fill: #f6f6f6;
      }

      .cls-6 {
        fill: #ffffff;
      }
    </style>
  </defs>
  <g>
    <path class="cls-1" d="M300.47,102.19c-28.13.31-51-23.14-51-51.07a51.08,51.08,0,1,1,102.16.16C351.54,79.76,328.06,102.65,300.47,102.19Zm4.53-74c-4.82,0-5.11-.39-4.23-4.51a21.36,21.36,0,0,1,.48-2.95c.72-1.92-.13-2.39-1.85-2.81-2.39-.58-3.44.17-3.66,2.53-.12,1.24-.56,2.44-.69,3.67-.16,1.57-1,2-2.39,1.68-2.12-.41-4.24-.78-6.36-1.19-1.16-.23-2.45-1.11-3.08.78-1,2.93-.7,3.95,1.38,4.76,3.93,1.53,4.14,2.23,3.19,6.35-1.68,7.29-3.27,14.6-4.66,22-1,5.4-.86,5.57-6.18,5.31-3.23-.16-2.09,2.36-2.68,3.78-.67,1.59.74,1.78,1.75,2,1.85.45,3.73.82,5.62,1.14,3.22.56,3.56,1.09,2.78,4.35a29.06,29.06,0,0,0-.77,3.91,2.08,2.08,0,0,0,.67,1.65c2.09,1.41,4.28.42,4.8-2a36,36,0,0,0,.79-3.65c.18-1.91,1.27-2,2.8-1.78s2.89.42,2.43,2.53c-.38,1.7-.7,3.42-1,5.13-.47,2.56,1.71,2.19,3,2.63s2.15-.09,2.3-1.66.6-2.93.85-4.4c.3-1.74,1.1-2.42,3-2.4a34,34,0,0,0,8.12-.84c4.5-1.08,7.91-3.79,8.85-8.5s-1-8.61-4.62-11.71c-.64-.57-1.29-1.13-2.22-1.94l2.6-1.24c5.95-2.88,7.94-9.79,4.22-14.85a15.1,15.1,0,0,0-7.88-5.44c-1.58-.49-2.36-1.23-1.65-3.08a16.89,16.89,0,0,0,1-4.86,2.67,2.67,0,0,0-1.28-2,14.36,14.36,0,0,0-3.47-.83C306.32,22.6,305.67,25.32,305,28.16Z"/>
    <path class="cls-2" d="M124.89,37.89c.34,6.52.66,12.7,1,18.88l.84.22c2.53-5.16,5.13-10.3,7.59-15.5,1.55-3.3,4.25-4.72,7.6-3.49.53.2.94,1.4,1,2.17.27,4.65.41,9.31.62,14a22.07,22.07,0,0,0,.36,2.4l.74.19c2-4.42,4-8.8,5.87-13.27,2.79-6.8.65-5.38,8.15-5.56.8,0,1.59,0,3,0-1.55,3.53-2.63,6.65-4.22,9.49-3.57,6.37-7.34,12.61-11.13,18.85-1,1.67-5.85,2.69-7.41,1.61a3.28,3.28,0,0,1-.95-2.14c-.38-3.64-.65-7.29-1-10.94a4.42,4.42,0,0,0-.72-2.46c-.57.88-1.16,1.74-1.7,2.64-2.31,3.84-4.63,7.68-6.88,11.56-1.67,2.86-4.36,1.24-6.57,1.4-.47,0-1.43-1.78-1.56-2.81-1-8.34-1.87-16.7-2.78-25.05-.16-1.43.29-2.22,1.89-2.17C120.71,37.94,122.77,37.89,124.89,37.89Z"/>
    <path class="cls-2" d="M0,68.06c.78-3.42,1.43-6.4,2.14-9.37,2.18-9.2,4.35-18.41,6.64-27.59C9,30.25,10,29,10.63,29c5.36-.19,10.78-.61,16.07,0a9.74,9.74,0,0,1,9,8.73c.77,5.48-1,10.23-5.74,13.44-4.39,3-9.41,3.76-14.54,3.51-2.81-.14-3.79,1-4.2,3.54-.43,2.7-1.22,5.33-1.82,8A2.09,2.09,0,0,1,7,68.08C4.83,68,2.68,68.06,0,68.06ZM14,46.78c3.74.9,8.1.2,10.34-1.52C27.24,43,27.7,38,24.8,36.79c-2.24-.95-5-.8-7.5-1-.31,0-.88.7-1,1.17C15.49,40.17,14.76,43.39,14,46.78Z"/>
    <path class="cls-2" d="M199.55,68.06c.83-3.65,1.53-6.87,2.3-10.08,2.44-10.26,4.94-20.5,7.33-30.77A2.7,2.7,0,0,1,212,24.73c2.05-.13,4.07-.59,6.59-1l-3.15,13.76c1.51,0,2.64,0,3.76,0,6.85-.19,11,4.33,9.85,11.17-.83,5-2,9.92-3.24,14.84-1.12,4.57-1.21,4.54-6,4.54h-3.61c1-4.2,1.92-8,2.74-11.88.58-2.75,1.08-5.53,1.42-8.32a2.77,2.77,0,0,0-2.89-3.31c-1.85-.1-3.75-.44-4.35,2.38-1.4,6.49-3.14,12.91-4.63,19.38-.31,1.32-.87,1.81-2.18,1.77C204.24,68,202.17,68.06,199.55,68.06Z"/>
    <path class="cls-2" d="M84.36,57.18a66,66,0,0,0,3.2-6c1.57-3.75,2.85-7.62,4.36-11.39.29-.73,1-1.75,1.64-1.81,2.44-.2,4.91-.08,8-.08-1.41,3.53-2.53,6.6-3.86,9.59A115,115,0,0,1,83.43,71.15C79.68,76,75,79.2,68.49,78.4a38.41,38.41,0,0,1-4.33-1.05c.39-1.21.73-2.12,1-3,.66-2.62,1.57-3.91,4.92-3.09,4.45,1.08,7.65-3,6.86-7.48C75.54,56,74.52,48.29,73.33,40.58c-.32-2,.37-2.8,2.53-2.73,7.45.23,6-1.07,6.6,6.34.33,4.22.7,8.44,1.05,12.66Z"/>
    <path class="cls-2" d="M63.34,67.59c-1.47.19-3.51.46-5.55.7-.31,0-.85,0-.93-.18-1.38-2.94-3-.93-4.53-.25-7,3.08-13.72-.81-14.9-8.43-1.85-11.9,7.11-23.57,20.69-22,2.46.29,4.91.79,7.33,1.32,1.29.28,1.83,1,1.43,2.56a142.55,142.55,0,0,0-3.44,14.78C62.91,59.66,63.34,63.34,63.34,67.59ZM57.47,44.11c-2.1.33-3.88.29-5.4.91-5.07,2-7.92,9.2-5.88,14.31.69,1.71,2.12,2.61,3.75,2.16s4-1.31,4.38-2.51C55.69,54.42,56.37,49.64,57.47,44.11Z"/>
    <path class="cls-2" d="M192.86,29.17c-.57,2.45-1,4.46-1.51,6.46-.38,1.57.08,2.37,1.84,2.27,1.57-.09,3.16,0,4.74,0a5.27,5.27,0,0,1,1.59.32,31.9,31.9,0,0,1-.77,5.52,2.7,2.7,0,0,1-2,1.28,42.12,42.12,0,0,1-5.73,0c-1.38-.06-2.07.33-2.36,1.82-.59,3-1.44,6-2.15,9-1,4.19.27,5.75,4.61,5.55,1.32-.06,2.63-.32,4.26-.52a44.67,44.67,0,0,1,.51,5.29c0,.54-.92,1.35-1.56,1.54-3.8,1.12-7.65,1.59-11.54.36a6.72,6.72,0,0,1-5-6.94,91,91,0,0,1,1.87-12.26c1.17-5.52,2.56-11,4-16.44a3.55,3.55,0,0,1,2.13-2.14A65.32,65.32,0,0,1,192.86,29.17Z"/>
    <path class="cls-2" d="M175.42,37.88c-.71,3.06-1.3,5.69-1.93,8.32-1.62,6.7-3.29,13.39-4.84,20.11-.34,1.47-1,1.84-2.41,1.78-2-.1-4,0-6.41,0,.65-2.93,1.2-5.56,1.82-8.17,1.6-6.71,3.28-13.39,4.83-20.11.32-1.41.9-2,2.33-1.92C170.8,38,172.78,37.88,175.42,37.88Z"/>
    <path class="cls-2" d="M172.34,34.35c-2.83,0-4.72-1.72-4.7-4.32a6.09,6.09,0,0,1,6-5.75,4.42,4.42,0,0,1,4.6,4.26A6,6,0,0,1,172.34,34.35Z"/>
    <path class="cls-6" d="M305,28.16c.67-2.84,1.32-5.56,2-8.57a14.36,14.36,0,0,1,3.47.83,2.67,2.67,0,0,1,1.28,2,16.89,16.89,0,0,1-1,4.86c-.71,1.85.07,2.59,1.65,3.08a15.1,15.1,0,0,1,7.88,5.44c3.72,5.06,1.73,12-4.22,14.85l-2.6,1.24c.93.81,1.58,1.37,2.22,1.94,3.58,3.1,5.57,7,4.62,11.71S316,73,311.45,74.09a34,34,0,0,1-8.12.84c-1.92,0-2.72.66-3,2.4-.25,1.47-.71,2.92-.85,4.4s-.92,2.12-2.3,1.66-3.51-.07-3-2.63c.32-1.71.64-3.43,1-5.13.46-2.11-.93-2.29-2.43-2.53s-2.62-.13-2.8,1.78a36,36,0,0,1-.79,3.65c-.52,2.47-2.71,3.46-4.8,2a2.08,2.08,0,0,1-.67-1.65,29.06,29.06,0,0,1,.77-3.91c.78-3.26.44-3.79-2.78-4.35-1.89-.32-3.77-.69-5.62-1.14-1-.24-2.42-.43-1.75-2,.59-1.42-.55-3.94,2.68-3.78,5.32.26,5.16.09,6.18-5.31,1.39-7.35,3-14.66,4.66-22,.95-4.12.74-4.82-3.19-6.35-2.08-.81-2.36-1.83-1.38-4.76.63-1.89,1.92-1,3.08-.78,2.12.41,4.24.78,6.36,1.19,1.4.28,2.23-.11,2.39-1.68.13-1.23.57-2.43.69-3.67.22-2.36,1.27-3.11,3.66-2.53,1.72.42,2.57.89,1.85,2.81a21.36,21.36,0,0,0-.48,2.95C299.89,27.77,300.18,28.13,305,28.16Zm3.15,32.55A6.7,6.7,0,0,0,304,54.09a37.8,37.8,0,0,0-7.94-2,2.31,2.31,0,0,0-1.86,1.3c-1,3.77-1.68,7.6-2.51,11.41-.27,1.26,0,2.1,1.44,2.32,2.12.33,4.23.81,6.36,1.11C304.14,68.94,308,65.77,308.15,60.71ZM295.93,45.79c1.89.44,3.41.81,4.95,1.15a12.41,12.41,0,0,0,1.73.23c3.62.26,6.19-1.47,7-4.66a6.13,6.13,0,0,0-4-7.57,63.33,63.33,0,0,0-6.94-1.74C297.7,37.48,296.85,41.5,295.93,45.79Z"/>
    <path fill="transparent" d="M14,46.78c.79-3.39,1.52-6.61,2.33-9.82.12-.47.69-1.2,1-1.17,2.53.2,5.26.05,7.5,1,2.9,1.23,2.44,6.22-.49,8.47C22.07,47,17.71,47.68,14,46.78Z"/>
    <path fill="transparent" d="M57.47,44.11c-1.1,5.53-1.78,10.31-3.15,14.87-.35,1.2-2.76,2.06-4.38,2.51s-3.06-.45-3.75-2.16c-2-5.11.81-12.27,5.88-14.31C53.59,44.4,55.37,44.44,57.47,44.11Z"/>
    <path class="cls-1" d="M308.15,60.71c-.2,5.06-4,8.23-8.63,7.56-2.13-.3-4.24-.78-6.36-1.11-1.46-.22-1.71-1.06-1.44-2.32.83-3.81,1.56-7.64,2.51-11.41a2.31,2.31,0,0,1,1.86-1.3,37.8,37.8,0,0,1,7.94,2A6.7,6.7,0,0,1,308.15,60.71Z"/>
    <path class="cls-1" d="M295.93,45.79c.92-4.29,1.77-8.31,2.69-12.59a63.33,63.33,0,0,1,6.94,1.74,6.13,6.13,0,0,1,4,7.57c-.78,3.19-3.35,4.92-7,4.66a12.41,12.41,0,0,1-1.73-.23C299.34,46.6,297.82,46.23,295.93,45.79Z"/>
  </g>
</svg>
