<svg
  id="Layer_1"
  data-name="Layer 1"
  xmlns="http://www.w3.org/2000/svg"
  viewBox="0 0 609.29 609.03"
>
  <defs>
    <style>
      .cls-1 {
        fill: #000000;
      }
    </style>
  </defs>
  <path
    class="cls-1"
    d="M.06,609v-3.1Q.06,327.23,0,48.57c0-2.55.67-3.2,3.19-3.2,26.34,0,52.67-.12,79-.2,3.26,0,3.27,0,3.27,3.31,0,11.5.06,23,0,34.5,0,2.26.77,2.83,2.88,2.83q33.76-.09,67.51,0c2.06,0,2.72-.6,2.71-2.69-.08-11.66,0-23.33-.09-35,0-2.29.63-3,2.95-3q143.39.08,286.77,0c2.29,0,2.78.77,2.76,2.88-.09,11.67,0,23.34-.09,35,0,2.2.64,2.83,2.84,2.82q33.75-.1,67.5,0c2.27,0,2.8-.75,2.78-2.88-.08-11.67,0-23.34-.08-35,0-2.2.63-2.82,2.83-2.81q38.88.24,77.76.3c4.36,0,4.38,0,4.39,4.31.14,31.59.37,63.17.38,94.76q.06,230.16,0,460.33a20.91,20.91,0,0,0,0,2.24c.17,1.59-.57,2.1-2,2a19,19,0,0,0-2,0H.06Zm574.7-462.71H476.24v94.56c0,3.22,0,3.22,3.34,3.22q45.85,0,91.71,0c3.46,0,3.47,0,3.47-3.36V146.29ZM244.7,255.79c-1.31-.06-2.21-.13-3.11-.13-30.83,0-61.66,0-92.49-.07-2.5,0-3,.83-3,3.14q.1,45.87,0,91.74c0,2.33.53,3.14,3,3.14q46.13-.14,92.24-.06c3.31,0,3.32,0,3.32-3.25V255.79Zm59.95,97.78c15.49,0,31-.05,46.49.05,2.53,0,3.21-.73,3.2-3.25q-.13-45.87,0-91.74c0-2.52-.83-3-3.13-3q-46.36.1-92.72,0c-2.24,0-2.8.64-2.79,2.82q.11,46.11,0,92.23c0,2.32.67,3,3,2.95C274,353.52,289.32,353.57,304.65,353.57ZM85.47,255.84c-15.58,0-31.15,0-46.73-.05-2.2,0-2.82.66-2.82,2.85q.09,46.1,0,92.21c0,2.4.72,3.16,3.15,3.16q46.23-.11,92.45,0c2.27,0,3.06-.66,3.06-3q-.09-46.23,0-92.46c0-2.27-.77-2.78-2.9-2.77C116.29,255.87,100.88,255.83,85.47,255.84ZM85.14,475c-15.42,0-30.83.06-46.24-.06-2.56,0-3.19.74-3.18,3.25q.12,45.75.06,91.49c0,3.29.07,3.36,3.35,3.36q46,0,92,.05c2.53,0,3.26-.74,3.25-3.25q-.12-46,0-92c0-2.38-.75-2.9-3-2.89C116,475.05,100.55,475,85.14,475Zm61.14-328.64v94.4c0,3.43,0,3.44,3.39,3.44h91.74c3.38,0,3.39,0,3.39-3.46V146.37Zm268.63,98.15h46c3.6,0,3.62,0,3.62-3.55V149.7c0-3.34,0-3.34-3.32-3.34q-46,0-92-.05c-2.47,0-3.3.63-3.3,3.21q.12,45.89,0,91.77c0,2.48.67,3.3,3.24,3.28C384.41,244.46,399.66,244.52,414.91,244.52ZM525.17,353.46c15.41,0,30.82,0,46.23.05,2.36,0,3.31-.44,3.3-3.13q-.16-45.86,0-91.71c0-2.68-.92-3.14-3.3-3.14q-46.11.1-92.21,0c-2.32,0-3.15.5-3.14,3q.12,46,0,92c0,2.5.82,3,3.13,3C494.51,353.42,509.84,353.46,525.17,353.46ZM305.09,464.05c15.41,0,30.83-.05,46.24.05,2.4,0,3.08-.63,3.07-3.05q-.12-45.87,0-91.75c0-2.58-.75-3.21-3.23-3.2q-46.24.11-92.48,0c-2.34,0-2.93.71-2.92,3q.09,46.13,0,92.25c0,2.23.65,2.79,2.83,2.77C274.09,464,289.59,464.05,305.09,464.05ZM86.22,366.41c-15.42,0-30.83,0-46.25-.05-2.46,0-3.25.58-3.24,3.18q.14,45.75.06,91.49c0,3.39,0,3.41,3.55,3.41q45.87,0,91.74.05c2.46,0,3.31-.59,3.31-3.19q-.13-46,0-92c0-2.28-.58-3-2.92-2.95C117,366.46,101.63,366.41,86.22,366.41Zm329.4-110.58c-15.42,0-30.83.06-46.25-.05-2.5,0-3.25.62-3.25,3.19q.13,45.76.06,91.51c0,3.47,0,3.48,3.48,3.48h91.51c3.57,0,3.58,0,3.58-3.66q0-45.63.05-91.26c0-2.49-.6-3.28-3.18-3.26C446.29,255.89,431,255.83,415.62,255.83ZM195.52,464c15.58,0,31.15,0,46.73.05,2.06,0,2.69-.59,2.69-2.68q-.09-46.23,0-92.47c0-2.18-.62-2.85-2.82-2.84q-46.37.09-92.71,0c-2.41,0-3.1.7-3.1,3.11q.12,45.85,0,91.72c0,2.59.78,3.19,3.24,3.18C164.87,464,180.19,464,195.52,464Zm219.89,0c15.41,0,30.83-.05,46.24.05,2.5,0,3.26-.65,3.25-3.22q-.13-45.75,0-91.49c0-2.52-.69-3.29-3.22-3.29q-46.25.12-92.49,0c-2.35,0-2.95.76-2.94,3q.09,46,0,92c0,2.29.61,3,2.94,3C384.58,464,400,464.06,415.41,464.06Zm-269,10.9c0,1.12-.12,1.93-.12,2.74q0,46.14-.05,92.26c0,2.27.6,3,2.92,3q46.26-.09,92.51,0c2.56,0,3.19-.78,3.19-3.27q-.13-45.88,0-91.76c0-2.41-.67-3-3.06-3q-46.24.12-92.5,0ZM255.9,146.12v2.76q0,46.11-.05,92.23c0,2.47.8,3,3.13,3q46.11-.1,92.22,0c3.2,0,3.21,0,3.21-3.34q0-45.87,0-91.73c0-2.25-.53-2.95-2.88-2.94q-46.49.12-93,.05Zm49.26,427.12c15.49,0,31,0,46.49,0,2.23,0,2.81-.66,2.81-2.82q-.09-46.37,0-92.75c0-2.05-.56-2.67-2.66-2.67q-46.62.1-93.24,0c-2.06,0-2.7.55-2.69,2.65q.09,46.37,0,92.74c0,2.13.53,2.86,2.79,2.85C274.16,573.19,289.66,573.24,305.16,573.24Zm110.52-98.13c-15.42,0-30.83,0-46.24-.05-2.2,0-3.05.46-3.05,2.86q.12,46.24,0,92.49c0,2.1.51,2.9,2.78,2.89q46.37-.1,92.73,0c2.44,0,3.09-.8,3.08-3.16q-.09-46,0-92c0-2.4-.68-3.13-3.1-3.11C446.5,475.16,431.09,475.11,415.68,475.11ZM84.62,243.79c15.49,0,31,0,46.48.05,2.35,0,3.11-.56,3.1-3q-.12-45.87,0-91.73c0-2.51-.62-3.23-3.18-3.22q-46.11.13-92.22,0c-2.48,0-3.24.59-3.23,3.18q.13,45.85,0,91.73c0,2.41.65,3.08,3.05,3.07C54,243.75,69.29,243.8,84.62,243.79ZM525.36,474.93c-15.42,0-30.84,0-46.25-.05-2.29,0-3.17.46-3.16,3q.12,46,0,92c0,2.27.58,3,2.94,3q46.25-.12,92.49,0c2.57,0,3.21-.83,3.21-3.31q-.12-45.75,0-91.5c0-2.6-.8-3.21-3.26-3.19C556,475,540.69,474.93,525.36,474.93Zm-.05-108.59c-15.41,0-30.83,0-46.24,0-2.37,0-3.11.6-3.1,3q.12,45.89,0,91.76c0,2.56.78,3.21,3.27,3.2q46-.12,92-.05c3.33,0,3.34,0,3.34-3.32V369.67c0-3.32,0-3.33-3.25-3.33Z"
  />
  <path
    class="cls-1"
    d="M97.61.18c.85,0,1.66-.12,2.46-.12,14.58,0,29.15,0,43.73,0,2,0,2.7.53,2.7,2.64q0,33.75.15,67.48c0,2.22-.52,3-2.91,3-14.57-.11-29.15-.08-43.73,0-1.64,0-2.61-.13-2.61-2.22.07-23.15,0-46.31.06-69.47A11.65,11.65,0,0,1,97.61.18Z"
  />
  <path
    class="cls-1"
    d="M463.31.2c1.06-.06,1.88-.14,2.7-.14,14.42,0,28.83,0,43.25-.06,2.26,0,2.77.69,2.76,2.84-.07,22.42,0,44.84,0,67.26,0,.9-.1,1.79-.17,2.84-.92,0-1.65.14-2.38.14-14.34,0-28.67,0-43,0-2,0-2.77-.5-2.78-2.64-.1-22.75-.3-45.5-.46-68.26C463.17,1.65,463.25,1.08,463.31.2Z"
  />
</svg>
