<svg
  id="Layer_1"
  data-name="Layer 1"
  xmlns="http://www.w3.org/2000/svg"
  viewBox="0 0 799.84 722.86"
>
  <defs>
    <style>
      .cls-1 {
        fill: #000000;
      }
    </style>
  </defs>
  <path
    class="cls-1"
    d="M220.63,388.62C163.12,340.09,134.07,279,138.15,203.93c3.12-57.41,26.69-106.15,68.69-145.37,86.49-80.78,221.46-77.42,303.51,6.59,91.53,93.73,80,245.31-20.91,323.49a360.33,360.33,0,0,1,94.18,60.81l-27.48,27.46c-11.81-8.78-23.55-18.08-35.88-26.56a280.08,280.08,0,0,0-69.52-34.57,11.24,11.24,0,0,0-7.44.24q-87.51,37.53-175.08.31a12.32,12.32,0,0,0-9.93-.42c-92.41,34.2-154.87,99.19-193.62,188.44-13.14,30.27-21,62-25.55,94.66a31.39,31.39,0,0,0-.11,4,19.6,19.6,0,0,1-19.12,19.74C9.16,723-.48,714.29,0,703.33a229.25,229.25,0,0,1,4-30.66C14.5,615,35.84,561.86,69.51,513.74c37.73-53.81,86.26-94.88,145.93-122.58C217.06,390.41,218.65,389.59,220.63,388.62ZM176.41,217.26c-.57,97.74,79.43,177.89,178.33,178.6,97.19.73,178.4-79.55,179-177,.64-99-79.39-179.81-178.38-180.12C257,38.49,177,118.24,176.41,217.26ZM355.06,35.35l.45.44V3.07h-.45Z"
  />
  <path
    class="cls-1"
    d="M487.49,672.51c14.44-14.61,27.59-28,40.89-41.34q117-117,234.07-233.93c8.44-8.43,19.23-9.74,28.07-3.62,11.28,7.82,12.56,22.92,2.54,33q-34.87,35.11-70,70L506.78,713c-6.87,6.88-14.17,12-24.27,8.77a26.19,26.19,0,0,1-10.09-6.09q-78.1-77.74-155.95-155.75c-9.14-9.15-9.37-22.15-.8-30.81s21.77-8.37,31.18,1Q415.49,598.66,484,667.26C485.32,668.54,486.08,670.33,487.49,672.51Z"
  />
  <path
    class="cls-1"
    d="M701.28,646.26c2.92,17.68,6.5,35.28,8.56,53.06,2,17.09-13.22,28.39-27.75,21.49-6.71-3.19-10.27-8.72-11.18-16-1-7.74-2-15.47-2.78-23.23-.17-1.65-.15-4,.83-5,10-10.38,20.22-20.55,30.37-30.78Z"
  />
</svg>
