<svg
  id="Layer_1"
  data-name="Layer 1"
  xmlns="http://www.w3.org/2000/svg"
  viewBox="0 0 710.04 724.87"
>
  <defs>
    <style>
      .cls-1 {
        fill: #000000;
      }
    </style>
  </defs>
  <path
    class="cls-1"
    d="M220.63,388.62C163.12,340.09,134.07,279,138.15,203.93c3.12-57.41,26.69-106.15,68.69-145.37,86.49-80.78,221.46-77.42,303.51,6.59,91.53,93.73,80,245.31-20.91,323.49a360.33,360.33,0,0,1,94.18,60.81l-27.48,27.46c-11.81-8.78-23.55-18.08-35.88-26.56a279.91,279.91,0,0,0-69.52-34.57,11.24,11.24,0,0,0-7.44.24q-87.51,37.53-175.08.31a12.31,12.31,0,0,0-9.93-.42c-92.41,34.2-154.87,99.19-193.62,188.44-13.14,30.27-21,62-25.55,94.66a31.44,31.44,0,0,0-.11,4,19.6,19.6,0,0,1-19.12,19.74C9.16,723-.48,714.29,0,703.33a229.25,229.25,0,0,1,4-30.66C14.5,615,35.84,561.86,69.51,513.74c37.73-53.81,86.26-94.88,145.93-122.58C217.06,390.41,218.65,389.59,220.63,388.62ZM176.41,217.26c-.57,97.74,79.43,177.89,178.33,178.6,97.19.73,178.4-79.55,179-177,.64-99-79.39-179.81-178.38-180.12C257,38.49,177,118.24,176.41,217.26ZM355.06,35.35l.45.44V3.07h-.45Z"
    transform="translate(0.02 0)"
  />
  <path
    class="cls-1"
    d="M701.28,646.26c2.92,17.68,6.5,35.28,8.56,53.06,2,17.09-13.22,28.39-27.75,21.49-6.71-3.19-10.27-8.72-11.18-16-1-7.74-2-15.47-2.78-23.23-.17-1.65-.15-4,.83-5,10-10.38,20.22-20.55,30.37-30.78Z"
    transform="translate(0.02 0)"
  />
  <path
    d="M589.62,628.24l62.63-62.51a20,20,0,1,0-27.76-28.8l-.49.49-62.64,62.51L499,537.44a20,20,0,1,0-28.31,28.26l62.37,62.49-62.48,62.37a20,20,0,0,0,28.25,28.31l62.49-62.37L623.68,719A20,20,0,1,0,652,690.73Z"
    transform="translate(0.02 0)"
  />
</svg>
