<svg
  id="Layer_1"
  data-name="Layer 1"
  xmlns="http://www.w3.org/2000/svg"
  viewBox="0 0 225.16 165.52"
>
  <defs>
    <style>
      .cls-1 {
        fill: #000000;
      }
    </style>
  </defs>
  <path
    class="cls-1"
    d="M52.53,119.66c-7.65,5.21-13,3.46-16.08-5.1-1.84-5.12-3.75-10-9.73-12.19C23,101,23.07,97.1,23.49,93.71s1.19-6.82,1.81-10.23c-.39-.36-.78-.72-1.18-1.07-5.37,4.69-10.91,9.23-16,14.24-.87.86-.44,4.42.63,5.63,4.81,5.42,10.07,10.44,15.52,16,1.17-2.42,1.52-4.07,2.53-5,1.24-1.18,3-1.79,4.58-2.64.54,1.84,1.88,3.87,1.47,5.47-.93,3.66-2.94,7-4.1,10.65-2.27,7.1-4.63,14.21-6.29,21.46-1.89,8.27.65,11.56,9.16,10.89,7.88-.62,16-1.78,23.38-4.41,17-6.05,33.7-12.92,50.32-19.93,6.2-2.61,12-3.74,18.75-2.5,25.52,4.68,51.34,4.69,77.17,3.68,6.32-.24,12.65-.82,19-.75,1.63,0,3.24,1.91,4.86,2.95-1.49,1.2-2.95,3.43-4.46,3.47-20.64.59-41.29,1.47-61.91,1-12.91-.27-25.76-2.87-38.67-3.9a22.93,22.93,0,0,0-10.94,2.11C89.24,150,69.26,159,47.77,163.72A81.93,81.93,0,0,1,28,165.48c-9.6-.27-14.24-6.17-12.53-15.7,1.54-8.61,4-17.06,5.91-25.3-5.27-4.91-11.16-9.59-16-15.15C-2.19,100.77-1.74,95.63,6.59,88c4.88-4.47,10.29-8.37,15.81-12.82-.95-2.66-2-5.62-3.06-8.55-6.13-16.36-5-31.27,8.58-43.78a7.43,7.43,0,0,0,1.78-2.36c5-11,14.33-15,25.55-16.21A25,25,0,0,0,61.4,2.7C68.76-.1,76.25-1,83.87,1.27,90.12,3.1,94.06,7.48,95.74,13.63c.35,1.27-1.13,3-1.76,4.58-1.51-.66-3.69-.9-4.41-2.05C83.75,6.78,76.12,4.4,63.73,9.64c4.77,2.22,8.44,4.11,12.25,5.67,6.11,2.5,12.49,4.41,18.42,7.28,5.52,2.67,7.89,7.6,8,13.91a42.39,42.39,0,0,0,2.05,11.37c1.86,6.2-.19,11.39-4.17,17.62,2.85,0,4.88-.14,6.89,0,3,.25,7.65-2.61,8.34,2.37s-4.39,3.61-7.27,4.6c-5.79,2-10.26-1-14.82-3.71-2.81-1.67-3-3.71-.73-6,.7-.71,1.48-1.36,2.12-2.12,5.61-6.7,4.37-13.41-3.87-15.86-8.53-2.55-17.52-3.52-26.28-5.35C56.71,37.76,48.8,36,41,34c-2.38-.61-5-2.16-3.66-5.37s3.83-1.87,6.33-1.11A150.16,150.16,0,0,0,60.4,31.86c11.54,2.09,23.16,3.77,35,5.66.48-3.63-.5-7.24-4.81-9.12C85.7,26.29,80.88,24,75.82,22.57c-6.58-1.83-12.51-4.32-17-9.68a4.59,4.59,0,0,0-3.29-1.54C47.15,12,40.17,15,36,23c-1.64,3.15-4.49,5.65-6.64,8.57-3.43,4.62-8.15,9.2-5.41,15.57s9.44,5.57,14.87,5.65c7.8.11,15.64-1.31,23.43-1a188.32,188.32,0,0,1,25.12,3c1.63.28,4.19,3.48,3.93,4.88-.71,3.85-3.8,2.41-6.34,1.53-9.68-3.4-19.65-2.53-29.65-2.37s-19.82-.59-29.74-.95l-1.34.93c1.91,5.46,4.48,10.79,5.56,16.4,1.31,6.79,1.36,13.82,2,21.71,6.35,1.71,8.72,8.67,11.14,15.28,1.32,3.6,2.59,4.51,5.41,1.78,6.45-6.24,13.14-12.28,19.05-19,1.6-1.83.6-5.83,1.16-8.76A27.87,27.87,0,0,1,70.65,81c1.52,1.14,3.79,2,4.44,3.47,3.33,7.73.08,14.11-5.62,19C64,108.24,62.25,114.28,60.93,122A76.48,76.48,0,0,0,85.3,107.32c-3.1.14-5.06.62-6.81.19-1.5-.36-2.76-1.74-4.13-2.68,1.16-1.34,2.11-3.49,3.53-3.86a42.82,42.82,0,0,1,9.88-1c3.29-.06,5.28-1.47,6.13-4.59.72-2.67,2-5,5.17-3.66s2.19,4,1.12,6.42c-4.91,11.22-13.79,18.57-24.14,24.28a164.11,164.11,0,0,1-17.59,8c-1.55.64-4.08.6-5.31-.29-.91-.65-.62-3.23-.52-4.92a25.25,25.25,0,0,1,1-4.37c0-.7,0-1.41,0-2.11Z"
  />
  <path
    class="cls-1"
    d="M148.47,80.09c4.49-2.87,7.52-6.57,8.61-12.23a18.46,18.46,0,0,1,4.55-8.9c18.25-18.73,36.75-37.23,55.18-55.79.82-.83,1.53-2.12,2.5-2.36,1.53-.38,3.24-.06,4.87,0,0,1.64.36,3.46-.24,4.86s-2.17,2.47-3.34,3.65q-24.84,25-49.67,50c-1,1-2,2.12-4,4.24,7.37,0,13.59,0,19.81,0,2.74,0,6-.1,6.08,3.47s-3.13,3.52-5.9,3.5c-7.65-.06-15.3,0-23.32,0-1.25,9.75-9.57,14.35-16.13,20.19-3.68,3.28-7.76,1.66-11.42-3.46-5.11,2.59-10.15,5.3-15.32,7.71-3.4,1.58-7.83,3-10-.72-1.5-2.62-1.38-7.17-.21-10.15,5-12.79,15.34-20.49,27.13-26.62a17.53,17.53,0,0,0,5.95-4.87c11.41-15.56,22.63-31.25,33.9-46.9.49-.68.85-1.67,1.5-1.95A56,56,0,0,1,184.48,2c.07,1.89.93,4.29.09,5.57-4.2,6.39-8.84,12.47-13.32,18.67-7.7,10.65-15.3,21.36-23.16,31.88a18.35,18.35,0,0,1-6.32,5.21c-9.53,4.78-18.13,10.52-23.44,20.13a42.33,42.33,0,0,0-2,4.82l1.12,1.34c6.18-3.94,12.45-7.73,18.49-11.86,3.28-2.25,6-5.32,9.32-7.5,1.27-.84,3.48-.25,5.26-.32-.06,1.67.24,3.47-.28,5s-1.9,2.91-2.9,4.35ZM146.54,82l-.75-.61a5.78,5.78,0,0,0-.82,1.11c0,.1.47.44.73.67Z"
  />
  <path
    class="cls-1"
    d="M169.12,108.15c-3.8-.24-7.65-.24-11.41-.79-4.47-.64-8.14-3.29-8.59-7.75-.29-2.78,1-6.76,3.09-8.55,5.84-5.11,12-10.18,18.87-13.69,4.22-2.16,10-1.25,15-2.08,2.39-.39,5.16-1,6.88-2.54,8.48-7.5,16.66-15.33,25-23,1.87-1.74,3.84-3.71,6.3-.91,2.22,2.54.23,4.25-1.5,5.86C213.43,63.3,204.26,72,194.8,80.43a8.71,8.71,0,0,1-6.62,2c-9.21-2-16.59,1.16-23.35,6.94-2.28,1.94-4.72,3.7-6.92,5.72-.91.83-2.21,2.58-1.91,3.11a5.16,5.16,0,0,0,3.38,2.36c12.38,1.49,24-.13,34.63-7.51,8.16-5.65,16.86-10.53,25.5-15.43,1.13-.64,3.37.68,5.1,1.09-.65,1.63-.81,4-2,4.78-10.48,6.7-20.83,13.74-31.88,19.37-6.45,3.29-14.11,4.21-21.23,6.2Z"
  />
</svg>
