<svg
  id="Layer_1"
  data-name="Layer 1"
  xmlns="http://www.w3.org/2000/svg"
  viewBox="0 0 220.31 227.94"
>
  <defs>
    <style>
      .cls-1 {
        fill: #000000;
      }
    </style>
  </defs>
  <path
    class="cls-1"
    d="M68.2,122.68C31.26,90.77,38.7,41.82,64.14,18.33c26.8-24.74,66.64-24.4,92.81.81,25.34,24.42,31,72.12-4.81,103.34l9.18,5-8,9.33a22,22,0,0,1-2.43-1.09c-6.8-4.16-13.27-5.09-21.38-2-14.65,5.57-29.68,4.08-44.33-1.58a11,11,0,0,0-7.44,0c-32.23,13.21-51.85,37.68-61.87,70.4-1.88,6.15-2.79,12.62-3.91,19-.74,4.26-3.28,7-6.68,6.29-4.09-.9-5.66-3.78-5.16-7.83,3-24.1,11.47-45.92,26.72-65A113.06,113.06,0,0,1,68.2,122.68ZM54.7,68.34c0,31.06,24.71,56.42,55.07,56.5,30.72.09,55.83-25.21,55.87-56.29S140.55,12,110,12C79.6,12.05,54.71,37.42,54.7,68.34Z"
    transform="translate(-0.03 0)"
  />
  <path
    class="cls-1"
    d="M103.53,227.32c6-16.15,11.74-31.76,17.62-47.33a12.42,12.42,0,0,1,3-3.9q29.94-30.48,59.93-60.89c8.4-8.51,18.22-8.5,26.63,0,3.94,4,8.39,7.56,9.33,13.72.93,6-.2,11.31-4.44,15.64q-31.11,31.77-62.38,63.38A9.44,9.44,0,0,1,150,210q-22,8.46-44.08,16.8A19.58,19.58,0,0,1,103.53,227.32Zm18.65-17.77,24.39-9.17-16.45-16c-2.79,7.86-5.7,16.08-8.62,24.3l-.45.88Zm31.14-18.63L196,150.57l-15.15-14.82L138.1,176.54Zm50.28-48.55c2.78-3.64,9.22-6.46,6.18-12a25.9,25.9,0,0,0-11.83-11c-4.72-1.94-7.47,3.89-10.73,7.23C192.76,132,198,137,203.6,142.37Z"
    transform="translate(-0.03 0)"
  />
  <path
    class="cls-1"
    d="M193.73,177.19c2.88-2.84,5.71-5.63,9.36-9.21,3.29,7.11,7.18,13.69,9.41,20.8,3.16,10.07,5.25,20.49,7.47,30.83,1,4.56-1.32,8-5,8.12-4.16.1-6-2.27-6.55-6.48C206.3,205.7,201.75,190.91,193.73,177.19Z"
    transform="translate(-0.03 0)"
  />
</svg>
