<svg id="Layer_1" data-name="Layer 1" xmlns="http://www.w3.org/2000/svg" viewBox="0 0 366.5 164.47">
  <defs>
    <style>
      .cls-1 {
        fill: #ffffff;
      }
    </style>
  </defs>
  <g>
    <path class="cls-1" d="M0,2.41c.87-.05,1.68-.14,2.49-.14,10.75,0,21.5,0,32.24,0a3.59,3.59,0,0,1,3.59,2c1.23,2.16,2.68,4.2,4.21,6.56,1-.68,2-1.28,2.9-1.91,12.9-8.91,27-10.8,42-7,10,2.51,16.42,9.35,20.85,18.35a69.45,69.45,0,0,1,6.62,26c1,13.25,1.32,26.52-2,39.52-3.47,13.71-10,25.52-23.32,32-9.39,4.61-19.59,5.13-29.81,4.06-4.27-.45-8.46-1.73-12.69-2.65-.79-.17-1.57-.4-2.66-.68V162H0ZM44.33,63.14V85.61c0,6.31,0,6.31,6.21,7.35,11.8,2,16.35-1,18.83-12.74,2.36-11.18,2-22.51.95-33.8a52.13,52.13,0,0,0-2.57-10.86c-1-3.08-3.32-4.76-6.69-5.14-5.29-.6-10,1.17-14.71,3.08a2.89,2.89,0,0,0-2.06,3.18C44.38,45.5,44.33,54.32,44.33,63.14Z"/>
    <path class="cls-1" d="M249.07,129.22c5.46,1.11,10.47,2.41,15.56,3.07a86,86,0,0,0,13.89.65c4.12-.13,6.85-2.63,8.3-6.54a15.74,15.74,0,0,0-.13-12.23C271.61,77.63,256.77,41,241.86,4.37c-.21-.53-.35-1.09-.6-1.88h49.58q7.46,37.59,14.94,75.45l.47.07a13.33,13.33,0,0,0,.5-1.63q6.53-36,13-72c.26-1.44.63-2.16,2.3-2.15,14.17.06,28.33,0,42.49,0a19,19,0,0,1,1.95.22c-1.71,5.51-3.34,10.81-5,16.1C350.69,53.14,340,87.71,329,122.21a149.13,149.13,0,0,1-8.49,22.08c-6.25,12.37-17,18.37-30.7,19.75-13.26,1.34-26.07-.51-38.66-4.51-.81-.26-2-1.26-2-1.93C249,148.29,249.07,139,249.07,129.22Z"/>
    <path class="cls-1" d="M235.43,120h-17c-6.75,0-13.5-.05-20.25,0a2.68,2.68,0,0,1-3-1.94c-1-2.71-2.25-5.35-3.54-8.38-.94.81-1.65,1.45-2.38,2-12.82,10.57-27.37,12.94-43,8.23-9.76-2.94-15.16-10.6-17.87-20A50.86,50.86,0,0,1,128,72.32c4.07-14.84,14.69-22.62,29.32-25.62,9.74-2,19.6-1.06,29.41-1.28,1.31,0,2.62,0,4.42,0a81.7,81.7,0,0,0-.67-8.67,5.53,5.53,0,0,0-5.56-4.61,179.53,179.53,0,0,0-21.14.33c-7.11.69-14.11,2.41-21.15,3.67l-2.55.42c-.08-.91-.18-1.56-.18-2.21,0-8.58,0-17.16,0-25.75,0-1.43.28-2.26,1.87-2.64C159.46,1.7,177.33-1.23,195.67.51c6.47.62,12.91,1.44,19,4,11.51,4.85,18,13.62,20,25.81a74.18,74.18,0,0,1,.77,11.45c.07,25.08,0,50.16,0,75.25ZM190.68,64.68c-4.72.84-9.29,1.45-13.75,2.52-2.64.63-4.29,2.74-5.08,5.4a32.51,32.51,0,0,0-.59,14.58c.77,4.88,4,7.64,8.92,6.89,3-.47,5.94-2,8.9-3,1.46-.51,1.94-1.5,1.93-3.06-.08-6.9,0-13.8,0-20.71C191,66.66,190.83,66,190.68,64.68Z"/>
  </g>
</svg>
