<svg id="Layer_1" data-name="Layer 1" xmlns="http://www.w3.org/2000/svg" viewBox="0 0 452.05 187.2">
  <defs>
    <style>
      .cls-1 {
        fill: #ffffff;
      }
    </style>
  </defs>
  <g>
    <path class="cls-1" d="M296.92,54.92c3.13-2.5,5.5-4.76,8.21-6.48,11.25-7.14,23-7.3,34.46-1,6.77,3.73,10.8,10.19,13.38,17.41a67.63,67.63,0,0,1,4.09,24.67c-.2,7.39-.07,14.87-1.22,22.13-2.21,14-7.66,26.37-20.6,33.88a40.77,40.77,0,0,1-27.86,4.92c-1.88-.31-3.75-.72-5.6-1.17s-2.73.14-2.71,2.22c.07,9.24,0,18.49.07,27.74,0,2.07-.52,2.71-2.71,3-9.11,1.37-18.17,3.05-27.23,4.66-2.88.51-3.19.32-3.19-2.58q0-68.24-.05-136.47c0-2.19.55-2.85,2.78-2.81q11.86.21,23.74,0c2.32,0,3.11.88,3.37,2.92S296.52,52.37,296.92,54.92Zm2.17,44.48c0,7.5,0,15,.05,22.5a3.69,3.69,0,0,0,1.2,2.67c4.6,3.13,13.07,1.73,16.72-2.53a24.65,24.65,0,0,0,5.88-13.79,171.44,171.44,0,0,0,.89-20.13,29.08,29.08,0,0,0-3.74-14.59,9.29,9.29,0,0,0-8.41-4.87c-3.41,0-6.22,1.46-9,3.22S298.87,76,299,79.4C299.28,86.06,299.09,92.73,299.09,99.4Z"/>
    <path class="cls-1" d="M424.26,107.68h-24.5c-2.79,0-2.84.18-2.37,2.84,1.23,7,4.36,12.45,11.56,14.52,5.18,1.49,10.51,1.18,15.82.5a57.28,57.28,0,0,0,18.31-5.3c2-1,2.62-.16,2.9,1.78q1.31,9,2.83,17.92c.27,1.55,0,2.68-1.49,3.26-5.07,2-10,4.65-15.29,5.71A108.91,108.91,0,0,1,410.79,151c-9.55,0-18.86-1.94-27.11-7.14A38.31,38.31,0,0,1,368,124a57.36,57.36,0,0,1-4-21.16c.16-7,0-14,1.15-20.81,2.81-16,10.48-28.88,26.06-35.52,8.75-3.72,18-4.2,27.39-2.59,14.29,2.45,23.52,10.85,28.85,23.93A63.23,63.23,0,0,1,452,89.21c.23,5.16,0,10.33.08,15.5,0,2.23-.67,3.06-3,3C440.76,107.61,432.51,107.68,424.26,107.68Zm-15.64-20.5c3.41,0,6.82,0,10.23,0,1.23,0,2.34-.28,2-1.76-.93-4.61-1.6-9.33-3.14-13.73a8.65,8.65,0,0,0-8.44-5.92,9.3,9.3,0,0,0-8.62,4.88,29.84,29.84,0,0,0-3.77,14.74c-.05,1.49.65,1.82,2,1.8C402.14,87.15,405.38,87.18,408.62,87.18Z"/>
    <path class="cls-1" d="M68.16,75.22c-9.75-4.36-19-7.83-29.35-7.12-2.65.18-4.93.9-6,3.64-.92,2.45-.52,4.58,2.43,6.39,3.93,2.4,8.29,4.09,12.46,6.08,5.53,2.65,11.31,4.87,16.52,8,8.64,5.22,12.51,13.36,12.79,23.41.19,7-1,13.6-4.55,19.61-4.41,7.4-11.27,11.58-19.39,13.83a64,64,0,0,1-29.65.81c-7-1.39-13.76-4.17-20.65-6.23C0,142.81-.25,140.86.16,138.41c1-6,2-11.94,3-17.91.11-.65.29-1.3.44-2,.3-1.33.91-1.38,2.17-.88,6.15,2.43,12.25,5.11,18.59,6.94,5.53,1.59,11.32,2.76,17.14.64,4.22-1.53,5.86-7,2.39-9.8-3.23-2.59-7.14-4.42-10.92-6.22-5.53-2.64-11.46-4.54-16.8-7.5C3.5,94.75-.81,82.67,1.79,68.82c2.4-12.73,10.44-20.14,22.52-23.69C35,42,45.71,42.67,56.36,45c4.59,1,9,2.78,13.53,4.1A2.62,2.62,0,0,1,72,52.47Q70.79,59.72,69.59,67C69.14,69.62,68.67,72.27,68.16,75.22Z"/>
    <path class="cls-1" d="M143.88,122.37c.05,1,.13,1.89.13,2.78,0,6.91,0,13.83,0,20.74,0,2.05-.42,2.91-2.72,3.44a61.82,61.82,0,0,1-17.79,1.72c-6.38-.39-12.7-1.15-18.45-4.47a22.35,22.35,0,0,1-10.93-14.21,63.85,63.85,0,0,1-2-14.48c-.25-15-.13-30-.05-45,0-2.14-.48-3-2.76-2.84-2.9.19-5.83,0-8.74,0-1.7,0-2.17-.67-1.87-2.32C79.88,61.51,81,55.22,81.92,48.9c.28-2,1.27-2.49,2.92-2.67,1.15-.13,2.3-.31,3.44-.51,4-.71,4.08-.82,4.69-4.71,1-6.47,2-12.95,3.15-19.39a3.17,3.17,0,0,1,2.16-1.81c4.88-1,9.8-1.76,14.71-2.57,3.83-.63,7.68-1.21,11.85-1.86.06,1,.17,1.94.17,2.89,0,8.08.07,16.16,0,24.24,0,2.08.62,2.75,2.7,2.71,6-.12,12,0,18.32,0-.08,1.55,0,2.85-.23,4.11-.91,5.73-2,11.44-2.83,17.17-.5,3.25-.82,3.65-4,3.65-3.91,0-7.83.06-11.74,0-1.59,0-2.21.42-2.2,2.1.05,13.92,0,27.83.1,41.74a13.43,13.43,0,0,0,1.61,6.17c2.37,4.22,6.6,3.79,10.61,3.41C139.42,123.3,141.52,122.79,143.88,122.37Z"/>
    <path class="cls-1" d="M185.9,54.83c2.19-2.44,3.9-4.94,6.16-6.76,5.48-4.39,11.91-5.1,18.61-3.76a2.31,2.31,0,0,1,1.21,1.79c.08,9.07,0,18.15.07,27.23,0,1.68-.95,1.75-2.27,1.82-4.38.26-8.85.22-13.09,1.16-2.67.6-5.12,2.57-7.39,4.31-.82.63-1.13,2.35-1.14,3.57q-.09,30.74,0,61.47c0,3.44,0,3.44-3.42,3.44-9.08,0-18.15-.06-27.23.05-2.16,0-2.75-.81-2.75-2.77q0-49.35,0-98.7c0-2,.71-2.56,2.63-2.54,8.16.08,16.32.06,24.48,0,1.43,0,2.34.14,2.43,1.93a37.66,37.66,0,0,0,.92,5.64A12.16,12.16,0,0,0,185.9,54.83Z"/>
    <path class="cls-1" d="M253,97.18c0,16.24-.06,32.49,0,48.73,0,2.51-.66,3.29-3.22,3.25-9.08-.15-18.16-.11-27.24,0-2,0-2.72-.54-2.72-2.64q.09-49.48,0-99c0-1.89.58-2.42,2.42-2.4,9.41.08,18.83.1,28.24,0,2,0,2.5.65,2.49,2.57C253,64.19,253,80.69,253,97.18Z"/>
    <path class="cls-1" d="M236.35,35.18c-9.76.14-17.58-7.32-17.64-17.69C218.66,7.87,226.76,0,236.64,0c9.5,0,17.46,8.62,17.44,17.49C254.05,27.41,245.41,35.79,236.35,35.18Z"/>
  </g>
</svg>
